<mxfile host="app.diagrams.net" agent="Mozilla/5.0 (Macintosh; Intel Mac OS X 10_15_7) AppleWebKit/537.36 (KHTML, like Gecko) Chrome/135.0.0.0 Safari/537.36" version="26.2.12">
  <diagram id="C5RBs43oDa-KdzZeNtuy" name="Page-1">
    <mxGraphModel dx="560" dy="310" grid="1" gridSize="10" guides="1" tooltips="1" connect="1" arrows="1" fold="1" page="1" pageScale="1" pageWidth="827" pageHeight="1169" math="0" shadow="0">
      <root>
        <mxCell id="WIyWlLk6GJQsqaUBKTNV-0" />
        <mxCell id="WIyWlLk6GJQsqaUBKTNV-1" parent="WIyWlLk6GJQsqaUBKTNV-0" />
        <mxCell id="SC0DRT37iBWWlIyOKA5N-0" value="登入流程" style="rounded=0;whiteSpace=wrap;html=1;labelBackgroundColor=light-dark(#FFFFFF,#FF8000);" vertex="1" parent="WIyWlLk6GJQsqaUBKTNV-1">
          <mxGeometry x="50" y="60" width="50" height="10" as="geometry" />
        </mxCell>
        <mxCell id="SC0DRT37iBWWlIyOKA5N-9" value="" style="edgeStyle=orthogonalEdgeStyle;rounded=0;orthogonalLoop=1;jettySize=auto;html=1;" edge="1" parent="WIyWlLk6GJQsqaUBKTNV-1" source="SC0DRT37iBWWlIyOKA5N-5" target="SC0DRT37iBWWlIyOKA5N-8">
          <mxGeometry relative="1" as="geometry" />
        </mxCell>
        <mxCell id="SC0DRT37iBWWlIyOKA5N-5" value="用戶登入" style="strokeWidth=2;html=1;shape=mxgraph.flowchart.start_1;whiteSpace=wrap;" vertex="1" parent="WIyWlLk6GJQsqaUBKTNV-1">
          <mxGeometry x="160" y="80" width="80" height="40" as="geometry" />
        </mxCell>
        <mxCell id="SC0DRT37iBWWlIyOKA5N-10" style="edgeStyle=orthogonalEdgeStyle;rounded=0;orthogonalLoop=1;jettySize=auto;html=1;" edge="1" parent="WIyWlLk6GJQsqaUBKTNV-1" source="SC0DRT37iBWWlIyOKA5N-8">
          <mxGeometry relative="1" as="geometry">
            <mxPoint x="280.0000000000001" y="184.99999999999994" as="targetPoint" />
          </mxGeometry>
        </mxCell>
        <mxCell id="SC0DRT37iBWWlIyOKA5N-11" value="是" style="edgeLabel;html=1;align=center;verticalAlign=middle;resizable=0;points=[];" vertex="1" connectable="0" parent="SC0DRT37iBWWlIyOKA5N-10">
          <mxGeometry x="-0.0512" y="2" relative="1" as="geometry">
            <mxPoint as="offset" />
          </mxGeometry>
        </mxCell>
        <mxCell id="SC0DRT37iBWWlIyOKA5N-12" style="edgeStyle=orthogonalEdgeStyle;rounded=0;orthogonalLoop=1;jettySize=auto;html=1;" edge="1" parent="WIyWlLk6GJQsqaUBKTNV-1" source="SC0DRT37iBWWlIyOKA5N-8">
          <mxGeometry relative="1" as="geometry">
            <mxPoint x="200" y="260" as="targetPoint" />
          </mxGeometry>
        </mxCell>
        <mxCell id="SC0DRT37iBWWlIyOKA5N-13" value="否" style="edgeLabel;html=1;align=center;verticalAlign=middle;resizable=0;points=[];" vertex="1" connectable="0" parent="SC0DRT37iBWWlIyOKA5N-12">
          <mxGeometry x="-0.1086" y="1" relative="1" as="geometry">
            <mxPoint as="offset" />
          </mxGeometry>
        </mxCell>
        <mxCell id="SC0DRT37iBWWlIyOKA5N-8" value="為團長？" style="strokeWidth=2;html=1;shape=mxgraph.flowchart.decision;whiteSpace=wrap;" vertex="1" parent="WIyWlLk6GJQsqaUBKTNV-1">
          <mxGeometry x="160" y="150" width="80" height="70" as="geometry" />
        </mxCell>
        <mxCell id="SC0DRT37iBWWlIyOKA5N-14" value="填寫團員資料" style="rounded=1;whiteSpace=wrap;html=1;" vertex="1" parent="WIyWlLk6GJQsqaUBKTNV-1">
          <mxGeometry x="155" y="260" width="90" height="30" as="geometry" />
        </mxCell>
        <mxCell id="SC0DRT37iBWWlIyOKA5N-17" style="edgeStyle=orthogonalEdgeStyle;rounded=0;orthogonalLoop=1;jettySize=auto;html=1;" edge="1" parent="WIyWlLk6GJQsqaUBKTNV-1" source="SC0DRT37iBWWlIyOKA5N-16">
          <mxGeometry relative="1" as="geometry">
            <mxPoint x="320.0000000000001" y="260" as="targetPoint" />
          </mxGeometry>
        </mxCell>
        <mxCell id="SC0DRT37iBWWlIyOKA5N-21" value="否" style="edgeLabel;html=1;align=center;verticalAlign=middle;resizable=0;points=[];" vertex="1" connectable="0" parent="SC0DRT37iBWWlIyOKA5N-17">
          <mxGeometry x="0.0823" y="-2" relative="1" as="geometry">
            <mxPoint as="offset" />
          </mxGeometry>
        </mxCell>
        <mxCell id="SC0DRT37iBWWlIyOKA5N-19" style="edgeStyle=orthogonalEdgeStyle;rounded=0;orthogonalLoop=1;jettySize=auto;html=1;" edge="1" parent="WIyWlLk6GJQsqaUBKTNV-1" source="SC0DRT37iBWWlIyOKA5N-16">
          <mxGeometry relative="1" as="geometry">
            <mxPoint x="400.0000000000001" y="185.00000000000006" as="targetPoint" />
          </mxGeometry>
        </mxCell>
        <mxCell id="SC0DRT37iBWWlIyOKA5N-20" value="是" style="edgeLabel;html=1;align=center;verticalAlign=middle;resizable=0;points=[];" vertex="1" connectable="0" parent="SC0DRT37iBWWlIyOKA5N-19">
          <mxGeometry x="-0.2249" y="2" relative="1" as="geometry">
            <mxPoint as="offset" />
          </mxGeometry>
        </mxCell>
        <mxCell id="SC0DRT37iBWWlIyOKA5N-16" value="已註冊？" style="strokeWidth=2;html=1;shape=mxgraph.flowchart.decision;whiteSpace=wrap;" vertex="1" parent="WIyWlLk6GJQsqaUBKTNV-1">
          <mxGeometry x="280" y="150" width="80" height="70" as="geometry" />
        </mxCell>
        <mxCell id="SC0DRT37iBWWlIyOKA5N-23" value="註冊流程" style="verticalLabelPosition=bottom;verticalAlign=top;html=1;shape=process;whiteSpace=wrap;rounded=1;size=0.14;arcSize=6;" vertex="1" parent="WIyWlLk6GJQsqaUBKTNV-1">
          <mxGeometry x="270" y="260" width="100" height="30" as="geometry" />
        </mxCell>
        <mxCell id="SC0DRT37iBWWlIyOKA5N-24" value="團長登入" style="rounded=1;whiteSpace=wrap;html=1;" vertex="1" parent="WIyWlLk6GJQsqaUBKTNV-1">
          <mxGeometry x="400" y="170" width="100" height="27.5" as="geometry" />
        </mxCell>
      </root>
    </mxGraphModel>
  </diagram>
</mxfile>
